<svg width="332" height="98" viewBox="0 0 332 98" fill="none" xmlns="http://www.w3.org/2000/svg">
<path d="M41.0105 2.57389C43.9754 -0.857967 49.2737 -0.857963 52.2385 2.5739L57.0348 8.12557C58.7176 10.0734 61.2799 11.0114 63.814 10.6071L71.0365 9.45484C75.5011 8.74256 79.5599 12.1677 79.6377 16.7133L79.7635 24.0667C79.8077 26.6468 81.1711 29.0217 83.3707 30.3502L89.6398 34.1365C93.5152 36.4771 94.4352 41.7247 91.5896 45.2571L86.9861 50.9715C85.371 52.9765 84.8975 55.6772 85.7334 58.1168L88.1158 65.07C89.5886 69.3683 86.9395 73.9829 82.5018 74.8493L75.3231 76.2509C72.8044 76.7427 70.7155 78.5054 69.7966 80.9146L67.1776 87.7813C65.5586 92.026 60.5798 93.8485 56.6267 91.6434L50.2317 88.0764C47.9879 86.8248 45.2611 86.8248 43.0174 88.0764L36.6223 91.6434C32.6692 93.8485 27.6904 92.026 26.0714 87.7813L23.4524 80.9146C22.5335 78.5054 20.4447 76.7427 17.9259 76.2509L10.7472 74.8493C6.30954 73.9829 3.6604 69.3683 5.13316 65.07L7.51562 58.1168C8.35154 55.6772 7.87804 52.9765 6.26287 50.9715L1.65944 45.2571C-1.18625 41.7247 -0.266204 36.4771 3.60918 34.1365L9.87833 30.3502C12.0779 29.0217 13.4413 26.6468 13.4855 24.0667L13.6113 16.7133C13.6891 12.1677 17.7479 8.74256 22.2125 9.45484L29.435 10.6071C31.9691 11.0114 34.5314 10.0734 36.2142 8.12556L41.0105 2.57389Z" fill="url(#paint0_linear_18_213)"/>
<path d="M59.4723 47.4781L65.4088 25.9336L50.1589 41.9052L38.8275 32.4636L28.4813 70.0097L43.7312 54.0381L55.0607 63.4797L57.6501 54.0897L54.7 57.7662L47.6367 52.0387L54.5173 43.4576L59.4723 47.4781ZM42.6314 48.0865L39.0745 45.2002L41.9435 41.624L45.5003 44.5094L42.6314 48.0865Z" fill="white"/>
<path d="M109.588 79.8633V11.5017H136.876C143.756 11.5017 149.644 12.7308 154.539 15.1889C159.435 17.6469 163.205 21.4005 165.852 26.4496C168.498 31.4322 169.821 37.8432 169.821 45.6825C169.821 53.4554 168.498 59.8664 165.852 64.9154C163.205 69.9645 159.435 73.718 154.539 76.1761C149.644 78.6342 143.756 79.8633 136.876 79.8633H109.588ZM122.488 68.8018H136.876C140.052 68.8018 142.863 68.3368 145.311 67.4067C147.758 66.4766 149.809 65.1147 151.463 63.321C153.117 61.4608 154.374 59.1688 155.234 56.445C156.094 53.6547 156.524 50.4326 156.524 46.7787V44.686C156.524 40.9656 156.094 37.7435 155.234 35.0197C154.374 32.2294 153.117 29.9374 151.463 28.1437C149.809 26.2835 147.758 24.8884 145.311 23.9583C142.863 23.0282 140.052 22.5631 136.876 22.5631H122.488V68.8018Z" fill="#020202"/>
<path d="M176.821 79.8633V11.5017H210.956C215.984 11.5017 220.118 12.3986 223.36 14.1923C226.668 15.9861 229.148 18.5106 230.802 21.7659C232.456 25.0212 233.283 28.9077 233.283 33.4253C233.283 37.8764 232.423 41.7628 230.703 45.0846C228.983 48.4063 226.403 50.9973 222.963 52.8575C219.589 54.6512 215.355 55.5481 210.261 55.5481H189.721V79.8633H176.821ZM189.721 44.4867H209.864C213.172 44.4867 215.719 43.5234 217.505 41.5967C219.358 39.6037 220.284 36.8799 220.284 33.4253C220.284 31.1 219.887 29.1402 219.093 27.5458C218.299 25.9513 217.141 24.7223 215.62 23.8586C214.098 22.995 212.18 22.5631 209.864 22.5631H189.721V44.4867Z" fill="#020202"/>
<path d="M249.672 81.0591C248.216 81.0591 246.529 80.8598 244.611 80.4612C242.758 80.129 240.939 79.4647 239.153 78.4681C237.433 77.4716 236.011 76.01 234.886 74.0834C233.762 72.0904 233.199 69.4994 233.199 66.3105C233.199 62.7231 233.993 59.7667 235.581 57.4415C237.168 55.0498 239.385 53.1896 242.229 51.8609C245.14 50.4658 248.58 49.5025 252.549 48.971C256.585 48.3731 260.984 48.0742 265.747 48.0742V43.7891C265.747 42.2611 265.515 40.8992 265.052 39.7034C264.589 38.5075 263.729 37.5774 262.472 36.9131C261.282 36.1823 259.462 35.8169 257.015 35.8169C254.567 35.8169 252.649 36.1159 251.259 36.7138C249.87 37.3117 248.911 38.0425 248.382 38.9061C247.852 39.7698 247.588 40.6667 247.588 41.5967V42.9919H235.878C235.812 42.6597 235.779 42.3275 235.779 41.9954C235.779 41.6632 235.779 41.2646 235.779 40.7995C235.779 37.81 236.672 35.219 238.458 33.0266C240.245 30.8343 242.725 29.1734 245.901 28.044C249.076 26.8482 252.748 26.2503 256.915 26.2503C261.679 26.2503 265.582 26.9146 268.625 28.2433C271.734 29.572 274.049 31.4654 275.571 33.9235C277.092 36.3816 277.853 39.3712 277.853 42.8922V67.606C277.853 68.8683 278.217 69.7652 278.945 70.2966C279.672 70.8281 280.466 71.0939 281.326 71.0939H284.502V79.4647C283.84 79.7304 282.881 80.0294 281.624 80.3615C280.367 80.7601 278.812 80.9594 276.96 80.9594C275.24 80.9594 273.685 80.6605 272.296 80.0626C270.973 79.5311 269.849 78.7339 268.922 77.6709C267.996 76.608 267.335 75.3457 266.938 73.8841H266.342C265.218 75.2793 263.862 76.5415 262.274 77.6709C260.752 78.7339 258.933 79.5643 256.816 80.1622C254.765 80.7601 252.384 81.0591 249.672 81.0591ZM253.343 71.0939C255.328 71.0939 257.081 70.7949 258.602 70.197C260.19 69.5991 261.48 68.7686 262.472 67.7057C263.531 66.6427 264.325 65.3472 264.854 63.8192C265.449 62.2912 265.747 60.6304 265.747 58.8366V56.445C262.109 56.445 258.735 56.6775 255.625 57.1425C252.582 57.6076 250.135 58.4712 248.282 59.7335C246.496 60.9957 245.603 62.7895 245.603 65.1147C245.603 66.3105 245.868 67.3735 246.397 68.3036C246.992 69.1672 247.852 69.8648 248.977 70.3963C250.168 70.8613 251.623 71.0939 253.343 71.0939Z" fill="#020202"/>
<path d="M293.399 98C290.951 98 288.967 97.8007 287.445 97.4021C285.924 97.0699 285.064 96.8706 284.865 96.8042V88.1344H290.422C291.811 88.1344 293.201 87.769 294.59 87.0382C295.979 86.3075 297.236 85.3109 298.361 84.0487C299.485 82.7864 300.312 81.3913 300.841 79.8633L280.499 27.4461H293.201L302.925 52.5585C303.388 53.6879 303.851 55.1163 304.315 56.8436C304.844 58.5709 305.373 60.3646 305.902 62.2248C306.431 64.0185 306.861 65.6462 307.192 67.1078H307.688C307.953 66.1112 308.251 64.9818 308.581 63.7196C308.912 62.4573 309.243 61.1618 309.574 59.8331C309.971 58.5044 310.368 57.209 310.765 55.9467C311.161 54.6844 311.492 53.5882 311.757 52.6582L319.695 27.4461H332L314.535 77.1727C313.543 79.9629 312.418 82.6203 311.161 85.1448C309.971 87.6694 308.548 89.8949 306.895 91.8215C305.307 93.7482 303.388 95.243 301.139 96.3059C298.956 97.4353 296.376 98 293.399 98Z" fill="#020202"/>
<defs>
<linearGradient id="paint0_linear_18_213" x1="166" y1="0" x2="166" y2="98" gradientUnits="userSpaceOnUse">
<stop stop-color="#006DE1"/>
<stop offset="1" stop-color="#4F20D2"/>
</linearGradient>
</defs>
</svg>
